<?xml version="1.0" standalone="no"?>
<!DOCTYPE svg PUBLIC "-//W3C//DTD SVG 20010904//EN"
 "http://www.w3.org/TR/2001/REC-SVG-20010904/DTD/svg10.dtd">
<svg version="1.0" xmlns="http://www.w3.org/2000/svg"
 width="180.000000pt" height="179.000000pt" viewBox="0 0 180.000000 179.000000"
 preserveAspectRatio="xMidYMid meet">

<g transform="translate(0.000000,179.000000) scale(0.100000,-0.100000)"
fill="#F24968" stroke="none">
<path d="M785 1710 c-193 -30 -347 -111 -481 -253 -89 -92 -143 -183 -185
-307 -28 -83 -33 -111 -37 -226 -4 -111 -1 -143 18 -220 27 -109 55 -172 114
-263 107 -167 278 -288 481 -342 110 -29 297 -29 406 -1 499 132 757 673 543
1140 -82 179 -233 330 -410 408 -127 56 -321 83 -449 64z m308 -74 c197 -67
344 -218 407 -421 28 -90 31 -250 7 -344 -58 -218 -246 -406 -458 -456 -453
-107 -855 310 -747 775 31 135 140 290 260 371 160 109 352 136 531 75z"/>
<path d="M825 1633 c-221 -29 -405 -188 -469 -402 -18 -62 -21 -193 -5 -261
20 -86 76 -186 143 -253 219 -219 570 -224 796 -11 222 210 226 548 10 764
-122 123 -305 186 -475 163z m170 -58 c119 -32 224 -115 278 -222 102 -200 13
-442 -200 -544 -122 -59 -292 -51 -411 18 -102 60 -183 178 -201 294 -45 285
243 529 534 454z"/>
<path d="M811 1545 c-100 -28 -172 -91 -219 -194 -23 -47 -27 -70 -27 -146 0
-76 4 -99 27 -147 35 -75 98 -142 165 -175 45 -21 70 -27 132 -27 67 -1 85 3
144 32 74 36 122 88 159 168 19 41 23 66 23 149 0 87 -3 107 -26 156 -69 146
-230 224 -378 184z m172 -45 c110 -75 116 -227 11 -306 -50 -39 -133 -45 -192
-15 -64 33 -97 90 -97 167 0 54 4 67 31 101 65 82 171 105 247 53z"/>
</g>
</svg>
