<svg xmlns="http://www.w3.org/2000/svg" version="1.2" viewBox="0 0 6246 4684" width="6246" height="4684"><title>udemy-business-svg</title><style> .s0 { fill: #000000;stroke: #000000;stroke-miterlimit:10;stroke-width: 36.7 } .s1 { fill: #a435f0;stroke: #000000;stroke-miterlimit:10;stroke-width: 36.7 } .s2 { fill: #ffffff;stroke: #000000;stroke-miterlimit:10;stroke-width: 36.7 } </style><path id="Layer" class="s0" d="m4467.8 4677.9l-2701.6 0.1c-542.7 0-989.2-444.5-989.2-989.3v-2699.4c0-542.8 446.5-989.3 989.2-989.3h2701.5c546.9 0 989.3 446.5 989.3 989.3v2701.5c0 542.7-446.5 987.2-989.3 987.2z"></path><path id="Layer" class="s1" d="m4039.7 1614l-923.7-532.6-923.7 532.5v-532.5l923.7-532.5 923.7 532.5z"></path><path id="Layer" class="s2" d="m2192.3 2064.5h483.3v1177.7c0 305.1 227.3 450.6 440.3 450.6 217.1 0 440.4-149.5 440.4-454.7v-1173.6h483.3v1202.2c0 278.6-88 495.7-264.2 645.2-176.1 147.4-395.3 219.1-663.6 219.1-268.3 0-487.4-73.7-659.5-219.1-172-145.4-260.1-356.4-260.1-630.8z"></path></svg>