<?xml version="1.0" standalone="no"?>
<!DOCTYPE svg PUBLIC "-//W3C//DTD SVG 20010904//EN"
 "http://www.w3.org/TR/2001/REC-SVG-20010904/DTD/svg10.dtd">
<svg version="1.0" xmlns="http://www.w3.org/2000/svg"
 width="300.000000pt" height="108.000000pt" viewBox="0 0 300.000000 108.000000"
 preserveAspectRatio="xMidYMid meet">

<g transform="translate(0.000000,108.000000) scale(0.100000,-0.100000)"
fill="#FFFF" stroke="none">
<path d="M207 1053 c6 -16 -9 -17 -25 -1 -8 8 -12 8 -12 1 0 -6 14 -16 30 -22
17 -5 30 -17 30 -25 0 -9 -6 -13 -14 -10 -7 3 -21 -3 -31 -12 -16 -17 -18 -17
-30 -1 -17 24 -28 21 -15 -3 6 -11 8 -25 5 -30 -3 -6 -1 -10 6 -10 7 0 9 -3 6
-7 -4 -3 1 -12 11 -19 13 -10 14 -15 5 -24 -15 -16 -33 -4 -33 21 0 10 -5 19
-11 19 -6 0 -8 9 -4 21 5 15 4 19 -4 15 -6 -4 -14 0 -17 9 -6 14 -9 13 -21 -5
-8 -12 -12 -24 -9 -27 3 -3 1 -12 -5 -20 -17 -19 8 -48 27 -32 8 6 14 19 14
27 0 10 3 13 10 6 14 -14 0 -54 -19 -55 -11 0 -12 -2 -3 -6 7 -3 19 0 26 6 7
6 20 9 28 6 7 -3 23 2 33 12 25 22 76 28 69 8 -11 -26 6 -37 32 -21 28 19 60
21 68 4 3 -7 3 -3 0 10 -4 16 -1 22 10 22 9 0 16 -5 16 -12 0 -6 3 -8 7 -4 5
4 -1 14 -11 22 -23 16 -40 19 -31 4 3 -5 1 -10 -4 -10 -10 0 -15 16 -14 47 0
6 -6 9 -13 6 -12 -5 -19 8 -15 30 0 4 -4 6 -11 5 -6 -2 -14 5 -16 15 -4 20 23
24 31 5 3 -7 6 -8 6 -3 0 6 -8 21 -18 35 -17 22 -19 22 -18 5 1 -11 -3 -19
-10 -18 -7 2 -10 -6 -8 -17 5 -24 -10 -27 -19 -4 -11 28 -7 46 9 40 8 -3 15
-1 15 4 0 5 -13 8 -29 7 -18 -1 -27 -7 -24 -14z m33 -87 c0 -6 5 -3 11 7 5 9
14 17 19 17 12 0 13 -20 2 -38 -11 -17 -62 1 -62 22 0 18 30 10 30 -8z m-46
-11 c-4 -10 -2 -13 8 -10 19 7 44 -20 28 -30 -6 -4 -18 -1 -27 7 -14 11 -16
11 -9 -1 6 -9 4 -12 -5 -9 -19 6 -24 39 -7 49 18 12 18 11 12 -6z m-84 -10 c0
-9 -6 -12 -15 -9 -8 4 -15 10 -15 15 0 5 7 9 15 9 8 0 15 -7 15 -15z m200 -16
c0 -5 -5 -9 -11 -9 -5 0 -8 -4 -4 -9 3 -5 1 -12 -4 -15 -11 -7 -25 30 -16 43
7 12 35 3 35 -10z m-210 -19 c0 -5 -7 -10 -15 -10 -8 0 -15 5 -15 10 0 6 7 10
15 10 8 0 15 -4 15 -10z"/>
<path d="M150 1030 c0 -9 5 -21 11 -27 13 -13 39 -6 39 9 0 6 -7 8 -15 4 -8
-3 -19 2 -24 12 -9 14 -10 14 -11 2z"/>
<path d="M310 990 c0 -5 5 -10 10 -10 6 0 10 5 10 10 0 6 -4 10 -10 10 -5 0
-10 -4 -10 -10z"/>
<path d="M346 993 c6 -4 14 -15 17 -23 5 -11 6 -9 4 4 -1 11 -9 21 -17 23 -10
3 -11 2 -4 -4z"/>
<path d="M217 879 c7 -7 15 -10 18 -7 3 3 -2 9 -12 12 -14 6 -15 5 -6 -5z"/>
<path d="M326 866 c6 -16 4 -18 -14 -14 -12 4 -20 2 -16 -3 7 -12 31 -11 40 2
3 6 1 16 -5 22 -9 9 -10 7 -5 -7z"/>
<path d="M118 843 c7 -3 16 -2 19 1 4 3 -2 6 -13 5 -11 0 -14 -3 -6 -6z"/>
<path d="M241 814 c0 -11 3 -14 6 -6 3 7 2 16 -1 19 -3 4 -6 -2 -5 -13z"/>
<path d="M262 776 c7 -8 15 -12 17 -11 5 6 -10 25 -20 25 -5 0 -4 -6 3 -14z"/>
<path d="M171 771 c-33 -6 -34 -7 -17 -23 22 -22 50 -24 42 -3 -7 18 15 20 32
3 13 -13 42 -20 42 -10 -1 31 -36 43 -99 33z"/>
<path d="M290 770 c0 -17 33 -41 42 -32 6 6 8 15 4 20 -8 13 -46 23 -46 12z"/>
<path d="M115 759 c-4 -6 -5 -12 -2 -15 2 -3 7 2 10 11 7 17 1 20 -8 4z"/>
<path d="M878 703 c7 -3 12 -25 12 -59 0 -49 3 -56 26 -66 21 -10 31 -9 52 3
23 12 28 23 30 64 2 27 9 53 15 57 7 4 -1 7 -18 7 -16 0 -24 -3 -17 -6 7 -3
12 -24 12 -53 0 -57 -23 -80 -60 -60 -16 8 -20 21 -20 60 0 29 5 50 13 53 6 3
-4 5 -23 5 -19 0 -29 -2 -22 -5z"/>
<path d="M1060 695 c7 -8 11 -35 8 -65 -3 -45 -1 -50 17 -49 11 0 14 3 8 6 -8
3 -13 22 -13 46 l0 41 48 -47 c26 -26 50 -47 53 -47 4 0 4 10 2 23 -2 12 0 41
5 65 9 36 8 42 -7 42 -13 0 -16 -9 -13 -47 l3 -48 -45 48 c-24 26 -52 47 -61
47 -14 0 -15 -3 -5 -15z"/>
<path d="M1244 694 c19 -18 21 -85 4 -102 -9 -9 -7 -12 10 -12 20 0 22 5 22
59 0 38 4 61 13 64 6 3 -5 6 -26 6 -35 1 -37 0 -23 -15z"/>
<path d="M1369 641 c20 -38 36 -69 37 -68 0 1 17 32 36 70 32 61 34 67 16 67
-10 0 -17 -4 -13 -9 6 -10 -25 -81 -35 -81 -10 0 -41 71 -35 81 4 5 -5 9 -18
9 l-24 0 36 -69z"/>
<path d="M1515 645 l0 -66 49 3 c33 2 51 8 54 18 4 12 2 13 -9 3 -7 -7 -26
-13 -41 -13 -24 0 -28 4 -28 26 0 23 3 26 30 22 19 -3 30 0 30 7 0 7 -12 10
-31 7 -28 -4 -30 -2 -27 19 3 27 45 39 59 17 7 -10 9 -9 9 5 0 14 -9 17 -47
17 l-48 0 0 -65z"/>
<path d="M1659 701 c9 -6 12 -25 10 -64 -4 -52 -2 -56 19 -60 17 -3 20 -1 13
6 -11 11 -15 57 -5 57 3 0 20 -16 38 -35 19 -19 39 -35 47 -35 7 0 0 13 -16
30 -26 27 -27 32 -15 55 19 36 -1 55 -59 55 -29 0 -41 -3 -32 -9z m76 -26 c0
-13 -8 -21 -22 -23 -19 -3 -23 1 -23 23 0 22 4 26 23 23 14 -2 22 -10 22 -23z"/>
<path d="M1822 698 c-20 -20 -14 -38 23 -59 19 -12 35 -27 35 -34 0 -20 -26
-25 -49 -9 -18 13 -21 13 -21 1 0 -22 41 -29 67 -11 32 21 29 41 -12 65 -19
12 -35 27 -35 35 0 18 46 19 53 2 3 -8 6 -6 6 5 1 20 -48 24 -67 5z"/>
<path d="M1939 701 c9 -6 12 -25 10 -65 -4 -48 -2 -56 14 -56 14 0 17 9 17 59
0 38 4 61 13 64 6 3 -6 6 -28 6 -26 0 -35 -2 -26 -8z"/>
<path d="M2025 700 c-4 -6 6 -7 25 -3 l32 6 -4 -62 c-3 -60 -2 -61 22 -60 14
0 19 3 13 6 -8 3 -13 25 -13 60 l0 55 30 -4 c17 -3 30 -1 30 4 0 12 -128 10
-135 -2z"/>
<path d="M2216 674 c35 -36 43 -71 23 -91 -9 -9 -7 -10 10 -6 16 4 21 13 21
37 0 30 21 72 44 88 6 4 1 8 -12 8 -13 0 -21 -4 -18 -9 3 -4 -1 -17 -9 -27
-15 -19 -15 -19 -30 0 -8 10 -12 23 -9 27 3 5 -8 9 -24 9 l-29 0 33 -36z"/>
<path d="M2478 693 c-25 -29 -29 -53 -13 -82 19 -38 60 -48 94 -23 32 24 40
76 15 103 -22 24 -76 25 -96 2z m74 -10 c31 -28 15 -103 -23 -103 -19 0 -49
41 -49 68 0 49 37 67 72 35z"/>
<path d="M2635 645 c0 -63 1 -65 25 -64 14 0 19 3 13 6 -7 2 -13 16 -13 30 0
22 3 25 30 21 19 -3 30 0 30 7 0 7 -11 10 -30 7 -25 -4 -30 -1 -30 17 0 27 26
38 51 22 15 -9 19 -8 19 4 0 11 -12 15 -47 15 l-48 0 0 -65z"/>
<path d="M191 666 c-19 -11 -21 -14 -7 -19 9 -4 16 -13 16 -21 0 -7 7 -17 16
-20 13 -5 14 -4 6 7 -7 8 -9 17 -5 20 11 12 23 7 23 -9 0 -8 4 -13 9 -10 5 3
7 16 3 28 -4 18 -2 20 14 15 18 -7 18 -6 -1 8 -18 14 -20 14 -23 1 -4 -20 -19
-21 -24 -2 -2 12 -7 12 -27 2z m19 -16 c0 -5 -2 -10 -4 -10 -3 0 -8 5 -11 10
-3 6 -1 10 4 10 6 0 11 -4 11 -10z"/>
<path d="M280 676 c0 -2 7 -7 16 -10 8 -3 12 -2 9 4 -6 10 -25 14 -25 6z"/>
<path d="M140 646 c0 -7 7 -19 15 -26 8 -7 12 -17 8 -23 -3 -6 -1 -7 5 -3 16
10 10 42 -10 55 -14 9 -18 8 -18 -3z"/>
<path d="M290 640 c-8 -5 -11 -10 -6 -10 6 0 1 -7 -10 -15 -10 -8 -14 -15 -7
-15 14 0 43 27 43 41 0 11 -1 11 -20 -1z"/>
<path d="M0 511 c0 -56 21 -137 51 -198 16 -35 27 -68 23 -75 -4 -7 -3 -8 5
-4 7 4 36 -15 73 -48 34 -31 67 -56 73 -56 17 0 101 68 120 96 9 14 20 22 25
19 6 -4 10 3 10 13 0 11 6 25 14 31 12 10 17 8 26 -9 6 -12 14 -19 17 -16 4 3
-1 14 -11 25 -16 18 -16 22 4 80 11 33 20 85 20 116 l0 55 -225 0 -225 0 0
-29z m173 -3 c23 -9 27 -16 27 -49 0 -37 -1 -38 -37 -41 -21 -2 -57 -1 -80 1
l-43 3 2 42 1 41 4 -37 c4 -32 8 -38 26 -37 17 1 18 2 5 6 -21 5 -25 68 -5 76
19 8 70 6 100 -5z m210 0 c23 -9 27 -16 27 -49 l0 -39 -80 0 -80 0 2 43 1 42
4 -37 c4 -32 8 -38 26 -37 17 1 18 2 5 6 -21 5 -25 68 -5 76 19 8 70 6 100 -5z
m-85 -148 c35 -33 29 -77 -19 -132 -39 -46 -69 -61 -69 -35 0 6 14 25 32 40
20 17 25 26 15 23 -25 -8 -44 4 -26 15 11 7 11 9 1 9 -7 0 -25 -8 -39 -17 -26
-17 -27 -17 -20 1 5 14 4 17 -8 12 -8 -3 -15 -1 -15 3 0 5 6 12 13 14 6 3 2 6
-9 6 -12 1 -27 7 -33 15 -14 17 -6 24 59 48 61 22 92 22 118 -2z"/>
<path d="M168 433 c7 -3 16 -2 19 1 4 3 -2 6 -13 5 -11 0 -14 -3 -6 -6z"/>
<path d="M378 433 c7 -3 16 -2 19 1 4 3 -2 6 -13 5 -11 0 -14 -3 -6 -6z"/>
<path d="M609 422 c-13 -34 -12 -35 19 -12 20 15 40 20 63 18 l34 -3 3 -127 3
-128 -33 -14 c-32 -14 -32 -14 45 -15 73 -1 102 10 57 22 -20 5 -20 12 -18
134 l3 128 37 3 c27 2 43 -3 58 -18 l21 -21 -3 27 -3 27 -139 1 c-136 1 -139
1 -147 -22z"/>
<path d="M1011 428 c-78 -53 -100 -130 -59 -207 56 -107 193 -108 265 -2 42
62 23 159 -39 204 -16 12 -49 22 -80 25 -44 3 -59 0 -87 -20z m124 -20 c36
-28 55 -76 55 -137 0 -129 -137 -156 -191 -37 -44 97 -9 196 71 196 23 0 48
-8 65 -22z"/>
<path d="M1300 439 c0 -5 6 -9 14 -9 22 0 26 -23 26 -140 0 -98 -2 -111 -21
-129 l-21 -20 68 0 c56 0 65 2 49 11 -30 17 -35 28 -35 86 0 45 3 52 20 52 11
0 31 -17 49 -43 35 -51 96 -107 116 -107 7 0 20 -3 29 -6 9 -3 16 -2 16 4 0 5
-9 12 -19 15 -17 4 -111 113 -111 129 0 3 14 20 30 36 36 37 38 62 6 99 -23
27 -28 28 -120 29 -53 1 -96 -2 -96 -7z m170 -29 c38 -38 19 -92 -36 -106 -43
-11 -54 1 -54 59 0 30 3 57 7 60 14 14 64 6 83 -13z"/>
<path d="M1699 427 c-57 -38 -81 -84 -77 -144 16 -191 289 -188 305 4 10 122
-128 208 -228 140z m119 -13 c35 -24 62 -87 62 -143 0 -128 -138 -155 -194
-37 -43 90 -4 196 73 196 20 0 47 -7 59 -16z"/>
<path d="M1993 428 c27 -19 27 -21 27 -133 0 -104 -2 -116 -21 -134 l-22 -20
62 1 c33 0 61 5 61 9 0 5 -9 9 -20 9 -10 0 -24 9 -30 19 -11 22 -14 191 -2
190 4 0 54 -52 112 -115 58 -62 108 -114 113 -114 4 0 7 63 7 141 0 132 1 141
20 146 40 10 19 23 -37 23 -49 -1 -55 -2 -38 -12 11 -6 23 -16 27 -22 10 -14
10 -186 1 -185 -5 0 -52 49 -107 108 -93 101 -100 106 -139 107 l-41 2 27 -20z"/>
<path d="M2370 422 c-15 -33 -13 -37 10 -17 12 11 37 19 63 19 l42 1 3 -128 3
-127 -26 -10 c-14 -5 -25 -12 -25 -15 0 -3 34 -5 75 -5 41 0 75 4 75 9 0 5
-10 11 -22 13 -23 3 -23 6 -23 133 l0 130 37 3 c27 2 43 -3 58 -18 26 -26 30
-24 23 10 l-4 25 -139 0 c-135 0 -139 -1 -150 -23z"/>
<path d="M2772 433 c-105 -52 -111 -210 -10 -274 25 -15 45 -19 84 -16 65 4
110 36 136 94 58 131 -81 260 -210 196z m122 -28 c70 -65 74 -199 7 -235 -112
-59 -225 138 -135 235 32 35 91 35 128 0z"/>
<path d="M27 293 c-4 -3 -7 -13 -7 -22 1 -13 3 -13 11 2 11 19 8 33 -4 20z"/>
<path d="M390 266 c0 -2 8 -10 18 -17 15 -13 16 -12 3 4 -13 16 -21 21 -21 13z"/>
<path d="M35 240 c3 -5 8 -10 11 -10 2 0 4 5 4 10 0 6 -5 10 -11 10 -5 0 -7
-4 -4 -10z"/>
<path d="M45 190 c-3 -5 -1 -10 4 -10 6 0 11 5 11 10 0 6 -2 10 -4 10 -3 0 -8
-4 -11 -10z"/>
<path d="M414 168 l-19 -23 23 19 c21 18 27 26 19 26 -2 0 -12 -10 -23 -22z"/>
<path d="M335 150 c3 -5 8 -10 11 -10 2 0 4 5 4 10 0 6 -5 10 -11 10 -5 0 -7
-4 -4 -10z"/>
<path d="M130 95 c-19 -22 -8 -25 13 -3 9 10 13 18 8 18 -5 0 -14 -7 -21 -15z"/>
<path d="M277 93 c-10 -9 -9 -33 1 -33 4 0 8 9 8 20 0 23 0 22 -9 13z"/>
<path d="M221 34 c0 -11 3 -14 6 -6 3 7 2 16 -1 19 -3 4 -6 -2 -5 -13z"/>
<path d="M155 30 c-3 -5 -1 -10 4 -10 6 0 11 5 11 10 0 6 -2 10 -4 10 -3 0 -8
-4 -11 -10z"/>
<path d="M187 3 c18 -2 50 -2 70 0 21 2 7 4 -32 4 -38 0 -55 -2 -38 -4z"/>
</g>
</svg>
